<?xml version="1.0" standalone="no"?>
<!DOCTYPE svg PUBLIC "-//W3C//DTD SVG 20010904//EN"
 "http://www.w3.org/TR/2001/REC-SVG-20010904/DTD/svg10.dtd">
<svg version="1.0" xmlns="http://www.w3.org/2000/svg"
 width="500.000000pt" height="500.000000pt" viewBox="0 0 500.000000 500.000000"
 preserveAspectRatio="xMidYMid meet">
<metadata>
Created by potrace 1.16, written by Peter Selinger 2001-2019
</metadata>
<g transform="translate(0.000000,500.000000) scale(0.100000,-0.100000)"
fill="#000000" stroke="none">
<path d="M2310 3923 c-373 -60 -656 -198 -895 -438 -196 -195 -314 -404 -383
-674 -25 -99 -27 -121 -27 -321 0 -200 2 -222 27 -321 69 -270 187 -479 383
-674 209 -210 465 -349 767 -416 145 -33 435 -38 593 -11 321 55 604 200 830
427 196 195 314 404 383 674 25 99 27 121 27 321 0 200 -2 222 -27 321 -108
424 -379 759 -778 959 -224 113 -440 161 -708 159 -92 -1 -178 -4 -192 -6z
m463 -63 c487 -83 902 -400 1090 -833 21 -51 53 -144 70 -207 30 -112 31 -121
31 -330 0 -209 -1 -218 -31 -330 -147 -549 -589 -943 -1168 -1042 -157 -26
-428 -21 -573 11 -406 90 -738 320 -947 655 -65 105 -121 238 -158 376 -30
112 -31 121 -31 330 0 209 1 218 31 330 90 336 286 613 568 802 200 134 395
208 665 251 81 13 346 6 453 -13z"/>
<path d="M2747 3170 c-32 -25 -45 -65 -56 -166 -11 -94 -25 -109 -109 -120
-135 -16 -283 -82 -405 -181 -87 -70 -88 -89 -2 -117 46 -15 89 -19 185 -19
109 0 134 3 198 25 40 15 98 45 128 68 55 41 55 41 40 12 -21 -40 -96 -105
-153 -132 -126 -59 -288 -63 -445 -10 -106 35 -110 36 -133 10 -24 -27 -12
-39 78 -83 90 -43 148 -58 262 -66 l90 -6 3 -38 c2 -26 -2 -45 -13 -57 -15
-17 -14 -18 34 -21 47 -4 49 -3 33 14 -20 22 -21 93 -2 111 8 7 29 16 45 19
28 5 31 2 54 -50 20 -46 22 -56 10 -64 -17 -11 22 -12 71 -3 l32 7 -31 13
c-33 14 -68 72 -58 98 3 8 35 33 71 56 154 97 213 230 172 386 -21 82 -21 167
0 189 13 13 28 15 71 9 l54 -6 -34 53 c-53 84 -134 113 -190 69z"/>
<path d="M1625 2090 c-40 -26 -65 -75 -65 -128 0 -52 19 -91 60 -126 30 -25
37 -26 151 -26 l119 0 0 85 0 85 -95 0 c-88 0 -95 -2 -95 -20 0 -17 8 -19 73
-22 l72 -3 0 -40 0 -40 -74 -3 c-41 -2 -87 2 -102 9 -84 34 -81 169 3 198 17
6 69 11 114 11 77 0 84 2 84 20 0 19 -7 20 -107 20 -91 0 -113 -3 -138 -20z"/>
<path d="M2009 2087 c-43 -29 -64 -70 -63 -127 1 -57 26 -105 67 -130 47 -29
188 -28 235 0 69 43 91 161 41 224 -34 44 -70 56 -162 56 -71 0 -89 -4 -118
-23z m226 -51 c47 -47 39 -137 -14 -166 -31 -16 -163 -13 -188 5 -32 23 -47
77 -33 120 17 53 42 65 133 65 69 0 81 -3 102 -24z"/>
<path d="M2433 2090 c-67 -40 -88 -117 -55 -193 30 -69 67 -87 172 -87 98 0
138 17 166 72 23 43 23 128 0 163 -32 49 -73 65 -166 65 -67 0 -92 -4 -117
-20z m214 -45 c32 -23 47 -77 33 -120 -17 -53 -42 -65 -133 -65 -69 0 -81 3
-102 24 -45 45 -45 107 0 152 21 21 33 24 102 24 54 0 85 -5 100 -15z"/>
<path d="M2816 2089 c-19 -15 -26 -30 -26 -54 0 -77 31 -95 163 -95 99 0 117
-7 117 -47 0 -35 -29 -43 -159 -43 -114 0 -121 -1 -121 -20 0 -19 7 -20 136
-20 74 0 144 4 154 10 45 24 44 126 0 150 -10 6 -63 10 -117 10 -105 0 -123 7
-123 47 0 35 29 43 149 43 104 0 111 1 111 20 0 19 -7 20 -129 20 -115 0 -131
-2 -155 -21z"/>
<path d="M3170 1960 l0 -150 138 0 c131 0 138 1 138 20 0 19 -7 20 -113 20
l-113 0 0 110 0 110 110 0 c103 0 110 1 110 20 0 19 -7 20 -135 20 l-135 0 0
-150z"/>
</g>
</svg>
